<svg width="44" height="40" viewBox="0 0 44 40" fill="none" xmlns="http://www.w3.org/2000/svg">
<g clip-path="url(#clip0)">
<path d="M43.9148 19.5094C43.9148 8.73351 34.0854 0 21.9574 0C9.82937 0 0 8.73351 0 19.5094C0 29.2489 8.02817 37.3193 18.5266 38.7826V25.1488H12.9514V19.5094H18.5266V15.2112C18.5266 10.3225 21.803 7.62086 26.8206 7.62086C29.2222 7.62086 31.7353 8.0019 31.7353 8.0019V12.803H28.9649C26.2374 12.803 25.3882 14.3082 25.3882 15.8514V19.5094H31.478L30.5045 25.1488H25.3882V38.7826C35.8866 37.3193 43.9148 29.2489 43.9148 19.5094Z" fill="#1877F2"/>
<path d="M30.5042 25.1488L31.4777 19.5094H25.388V15.8514C25.388 14.3082 26.2371 12.803 28.9646 12.803H31.735V8.00189C31.735 8.00189 29.2219 7.62085 26.8204 7.62085C21.8027 7.62085 18.5263 10.3224 18.5263 15.2112V19.5094H12.9512V25.1488H18.5263V38.7825C19.6456 38.9388 20.7906 39.0188 21.9571 39.0188C23.1236 39.0188 24.2687 38.9388 25.388 38.7825V25.1488H30.5042Z" fill="white"/>
</g>
<defs>
<clipPath id="clip0">
<rect width="43.9148" height="39.0188" fill="white"/>
</clipPath>
</defs>
</svg>
