<svg width="44" height="39" viewBox="0 0 44 39" fill="none" xmlns="http://www.w3.org/2000/svg">
<path d="M21.9575 38.8589C34.0842 38.8589 43.9149 30.16 43.9149 19.4294C43.9149 8.69886 34.0842 0 21.9575 0C9.83069 0 0 8.69886 0 19.4294C0 30.16 9.83069 38.8589 21.9575 38.8589Z" fill="white"/>
<path d="M21.9575 0C9.83116 0 0 8.69927 0 19.4294C0 27.665 5.78303 34.7011 13.9516 37.5316C13.7528 35.9964 13.5901 33.6297 14.0239 31.9506C14.4214 30.4315 16.5901 22.2919 16.5901 22.2919C16.5901 22.2919 15.9395 21.1245 15.9395 19.4135C15.9395 16.7109 17.7105 14.696 19.9153 14.696C21.7948 14.696 22.6984 15.9433 22.6984 17.4305C22.6984 19.0936 21.5057 21.5883 20.8731 23.907C20.3491 25.842 21.9755 27.4251 24.1261 27.4251C28.0296 27.4251 31.0296 23.7791 31.0296 18.5339C31.0296 13.8805 27.2525 10.6342 21.849 10.6342C15.5961 10.6342 11.9275 14.776 11.9275 19.0616C11.9275 20.7247 12.6504 22.5158 13.554 23.4912C13.7347 23.6831 13.7528 23.859 13.6986 24.0509C13.5359 24.6586 13.1564 25.9859 13.0841 26.2577C12.9938 26.6095 12.7588 26.6895 12.3432 26.5136C9.59622 25.3782 7.87938 21.8441 7.87938 18.9817C7.87938 12.857 12.9034 7.22807 22.3912 7.22807C29.9995 7.22807 35.9271 12.0255 35.9271 18.454C35.9271 25.1543 31.1561 30.5434 24.5418 30.5434C22.3189 30.5434 20.2225 29.52 19.5177 28.3046C19.5177 28.3046 18.4153 32.0146 18.1443 32.9261C17.6563 34.6212 16.319 36.732 15.4154 38.0273C17.4756 38.587 19.6442 38.8909 21.9213 38.8909C34.0476 38.8909 43.8788 30.1916 43.8788 19.4614C43.9149 8.69927 34.0838 0 21.9575 0Z" fill="#E60019"/>
</svg>
