<svg width="44" height="40" viewBox="0 0 44 40" fill="none" xmlns="http://www.w3.org/2000/svg">
<path d="M0 19.5094C0 8.73466 9.83069 0 21.9575 0C34.0842 0 43.9149 8.73466 43.9149 19.5094C43.9149 30.2841 34.0842 39.0188 21.9575 39.0188C9.83069 39.0188 0 30.2841 0 19.5094Z" fill="#55ACEE"/>
<path d="M21.2996 15.8574L21.3457 16.5325L20.5778 16.4498C17.7825 16.1329 15.3404 15.0583 13.267 13.2536L12.2533 12.3581L11.9922 13.0194C11.4393 14.4935 11.7925 16.0503 12.9444 17.0973C13.5588 17.676 13.4206 17.7586 12.3608 17.4142C11.9922 17.304 11.6697 17.2213 11.6389 17.2627C11.5314 17.3591 11.9 18.6128 12.1919 19.1088C12.5912 19.7976 13.4052 20.4727 14.296 20.8722L15.0486 21.1891L14.1578 21.2029C13.2977 21.2029 13.267 21.2166 13.3591 21.5059C13.6663 22.4014 14.8796 23.3521 16.2312 23.7654L17.1835 24.0547L16.3541 24.4955C15.1254 25.1293 13.6817 25.4875 12.2379 25.515C11.5468 25.5288 10.9785 25.5839 10.9785 25.6252C10.9785 25.763 12.8523 26.5345 13.9428 26.8376C17.2142 27.7331 21.1 27.3474 24.0181 25.8181C26.0916 24.7297 28.165 22.5668 29.1326 20.4727C29.6548 19.3567 30.177 17.3178 30.177 16.3396C30.177 15.7059 30.2231 15.6232 31.0832 14.8655C31.59 14.4246 32.0661 13.9424 32.1583 13.8046C32.3119 13.5429 32.2965 13.5429 31.5132 13.7771C30.2077 14.1904 30.0234 14.1353 30.6685 13.5153C31.1446 13.0745 31.7129 12.2754 31.7129 12.0412C31.7129 11.9999 31.4825 12.0688 31.2214 12.1927C30.9449 12.3305 30.3306 12.5372 29.8698 12.6612L29.0405 12.8954L28.2879 12.4407C27.8732 12.1927 27.2895 11.9172 26.9824 11.8345C26.1991 11.6417 25.0011 11.6692 24.2946 11.8897C22.3747 12.5096 21.1614 14.1077 21.2996 15.8574Z" fill="white"/>
</svg>
